#!OML:ASF C:\Vicon Data\Big\jianyuan-12\jianyuan\Session 1\Capture.male.ASF
:FULLY-SPECIFIED
:DEGREES
56
root -8.637280 16.970575 -19.889972 5.431804 -7.052510 5.402831
lowerback -9.872667 -2.091188 -3.369187 
upperback 2.032929 -2.375621 0.154001 
thorax 7.850962 -1.317089 1.664780 
lowerneck -0.055909 -9.310216 -6.356283 
upperneck 6.184674 -12.941366 10.753109 
head 2.966148 -6.289473 3.812049 
rclavicle 0.000000 0.000000 
rhumerus -41.883045 -31.776891 -72.452375 
rradius 33.647274 
rwrist 39.202837 
rhand -22.290098 -4.061536 
rfingers 0.000000 
rthumb 4.128676 -34.001250 
lclavicle 0.000000 0.000000 
lhumerus -34.410974 32.277516 75.352182 
lradius 28.679837 
lwrist -52.148488 
lhand -9.131676 2.580032 
lfingers 0.000000 
lthumb 16.819649 31.871528 
rfemur -16.589116 0.551311 22.922447 
rtibia 25.310567 
rfoot -23.686201 -6.820735 
rtoes -9.822924 
lfemur -23.983401 5.887994 -21.484142 
ltibia 67.200422 
lfoot -9.727263 7.117577 
ltoes -16.538375 
57
root -8.653255 16.967184 -19.822171 5.330005 -7.445941 5.430110
lowerback -9.733034 -1.992436 -3.392450 
upperback 2.131820 -2.244141 0.146320 
thorax 7.869401 -1.255463 1.694369 
lowerneck -0.265164 -9.345540 -6.419788 
upperneck 6.240115 -12.992135 10.808830 
head 3.029265 -6.306962 3.822678 
rclavicle 0.000000 0.000000 
rhumerus -41.324548 -31.667651 -72.754102 
rradius 33.719392 
rwrist 38.982594 
rhand -22.280917 -4.011321 
rfingers 0.000000 
rthumb 4.137544 -33.950845 
lclavicle 0.000000 0.000000 
lhumerus -34.668300 32.736663 75.187421 
lradius 28.538080 
lwrist -52.265973 
lhand -8.989977 2.789938 
lfingers 0.000000 
lthumb 16.956110 32.069829 
rfemur -16.274280 0.410272 22.937205 
rtibia 25.409926 
rfoot -23.829062 -6.293915 
rtoes -10.035840 
lfemur -24.546443 5.720498 -21.530174 
ltibia 67.179641 
lfoot -10.374060 6.680836 
ltoes -15.886122 
58
root -8.670789 16.961761 -19.754205 5.312505 -7.828277 5.443439
lowerback -9.679320 -1.799688 -3.381904 
upperback 2.132029 -1.980689 0.028305 
thorax 7.817885 -1.122747 1.609482 
lowerneck -0.134629 -9.403857 -6.185635 
upperneck 6.151990 -13.078608 10.934225 
head 2.982469 -6.346025 3.828337 
rclavicle 0.000000 0.000000 
rhumerus -41.133445 -31.768524 -72.994592 
rradius 33.803762 
rwrist 38.780110 
rhand -22.453734 -3.998653 
rfingers 0.000000 
rthumb 3.970663 -33.941401 
lclavicle 0.000000 0.000000 
lhumerus -34.992781 32.763732 74.894777 
lradius 28.362502 
lwrist -52.292795 
lhand -8.784305 2.770226 
lfingers 0.000000 
lthumb 17.154058 32.032993 
rfemur -16.047033 0.496985 22.959039 
rtibia 25.518179 
rfoot -24.101637 -5.970920 
rtoes -9.797717 
lfemur -25.224892 5.610565 -21.618578 
ltibia 67.056855 
lfoot -10.729512 6.556740 
ltoes -17.206550 
59
root -8.686455 16.956587 -19.685902 5.283201 -8.195639 5.507314
lowerback -9.609852 -1.740661 -3.436104 
upperback 2.133971 -1.896706 0.015223 
thorax 7.776673 -1.083532 1.641927 
lowerneck -0.301738 -9.249976 -6.269137 
upperneck 6.217903 -12.874303 10.990181 
head 3.020378 -6.238577 3.859588 
rclavicle 0.000000 0.000000 
rhumerus -40.716730 -31.516712 -73.254446 
rradius 33.814148 
rwrist 38.648009 
rhand -22.592018 -4.015983 
rfingers 0.000000 
rthumb 3.837097 -33.961214 
lclavicle 0.000000 0.000000 
lhumerus -35.563738 33.174191 74.552524 
lradius 28.310100 
lwrist -52.597024 
lhand -8.663307 2.626490 
lfingers 0.000000 
lthumb 17.270510 31.879116 
rfemur -15.808714 0.527221 22.917337 
rtibia 25.616699 
rfoot -24.317120 -5.612971 
rtoes -9.846455 
lfemur -25.878325 5.380859 -21.745021 
ltibia 66.899642 
lfoot -11.378967 6.447045 
ltoes -17.823872 
60
root -8.700681 16.951765 -19.619786 5.291073 -8.599182 5.555316
lowerback -9.583558 -1.642549 -3.434143 
upperback 2.149713 -1.762750 -0.034102 
thorax 7.768894 -1.016902 1.611293 
lowerneck -0.569952 -9.227970 -6.287812 
upperneck 6.403441 -12.854731 11.030767 
head 3.122049 -6.214687 3.857980 
rclavicle 0.000000 0.000000 
rhumerus -40.251253 -31.275284 -73.626540 
rradius 33.917684 
rwrist 38.109496 
rhand -22.502176 -4.067516 
rfingers 0.000000 
rthumb 3.923811 -34.011103 
lclavicle 0.000000 0.000000 
lhumerus -36.000209 33.496560 74.223158 
lradius 28.151185 
lwrist -53.080909 
lhand -8.814526 2.649872 
lfingers 0.000000 
lthumb 17.124932 31.915160 
rfemur -15.636466 0.669019 22.882074 
rtibia 25.739251 
rfoot -24.516705 -5.340095 
rtoes -10.075601 
lfemur -26.572443 5.175856 -21.868160 
ltibia 66.688039 
lfoot -11.892551 6.238932 
ltoes -18.217277 
61
root -8.716760 16.943926 -19.553568 5.300248 -8.997831 5.570451
lowerback -9.542591 -1.437267 -3.379320 
upperback 2.151584 -1.483579 -0.203817 
thorax 7.724537 -0.873027 1.447996 
lowerneck -0.716868 -9.436586 -5.769298 
upperneck 6.624609 -13.144256 10.810802 
head 3.189910 -6.339946 3.685173 
rclavicle 0.000000 0.000000 
rhumerus -40.072951 -31.545483 -73.877526 
rradius 34.025183 
rwrist 38.189733 
rhand -22.525549 -4.188290 
rfingers 0.000000 
rthumb 3.901254 -34.132273 
lclavicle 0.000000 0.000000 
lhumerus -36.282009 33.356732 73.907707 
lradius 28.058883 
lwrist -53.000379 
lhand -8.555636 2.435095 
lfingers 0.000000 
lthumb 17.374120 31.678585 
rfemur -15.443837 1.012375 22.886208 
rtibia 25.857401 
rfoot -24.971260 -5.237325 
rtoes -9.761072 
lfemur -27.232253 4.975668 -21.925332 
ltibia 66.427600 
lfoot -12.351289 5.916746 
ltoes -17.916869 
62
root -8.734945 16.937547 -19.486181 5.363577 -9.420468 5.622305
lowerback -9.578714 -1.349264 -3.473308 
upperback 2.133297 -1.355107 -0.178453 
thorax 7.722179 -0.815114 1.548260 
lowerneck -0.816571 -9.447109 -5.846084 
upperneck 6.842448 -13.159308 10.639793 
head 3.266217 -6.345938 3.635315 
rclavicle 0.000000 0.000000 
rhumerus -39.712144 -31.226562 -74.110284 
rradius 34.098398 
rwrist 38.174514 
rhand -22.617989 -4.227895 
rfingers 0.000000 
rthumb 3.811976 -34.173511 
lclavicle 0.000000 0.000000 
lhumerus -36.752328 33.670229 73.696740 
lradius 28.046448 
lwrist -52.777695 
lhand -8.351598 2.219780 
lfingers 0.000000 
lthumb 17.570471 31.445801 
rfemur -15.317904 1.299646 22.852814 
rtibia 25.973518 
rfoot -25.882687 -4.989751 
rtoes -7.866197 
lfemur -27.932319 4.773741 -22.007542 
ltibia 66.114273 
lfoot -12.838528 5.775833 
ltoes -17.842248 
63
root -8.750012 16.931194 -19.419254 5.346507 -9.812331 5.646447
lowerback -9.513588 -1.363589 -3.536790 
upperback 2.140790 -1.377205 -0.072780 
thorax 7.698585 -0.831555 1.693177 
lowerneck -0.960972 -9.339831 -6.172575 
upperneck 7.011836 -13.011575 10.569190 
head 3.344225 -6.275744 3.661595 
rclavicle 0.000000 0.000000 
rhumerus -39.160555 -30.560788 -74.397270 
rradius 34.215764 
rwrist 37.845147 
rhand -22.470939 -4.160136 
rfingers 0.000000 
rthumb 3.953967 -34.103210 
lclavicle 0.000000 0.000000 
lhumerus -37.376727 34.293206 73.409199 
lradius 27.996196 
lwrist -53.196105 
lhand -8.448029 2.239212 
lfingers 0.000000 
lthumb 17.477681 31.473482 
rfemur -15.117798 1.334503 22.851926 
rtibia 26.100419 
rfoot -26.077590 -4.673426 
rtoes -8.409018 
lfemur -28.504412 4.475697 -22.062106 
ltibia 65.750504 
lfoot -13.307638 5.640308 
ltoes -17.607636 
64
root -8.762248 16.923928 -19.352290 5.299491 -10.202771 5.646815
lowerback -9.393349 -1.239135 -3.439161 
upperback 2.149523 -1.221537 -0.153964 
thorax 7.625188 -0.748130 1.579723 
lowerneck -1.093327 -9.190078 -6.315406 
upperneck 7.210884 -12.839544 10.858560 
head 3.438693 -6.174484 3.769571 
rclavicle 0.000000 0.000000 
rhumerus -38.840636 -30.386611 -74.727085 
rradius 34.340208 
rwrist 37.592576 
rhand -22.595066 -4.208480 
rfingers 0.000000 
rthumb 3.834135 -34.153721 
lclavicle 0.000000 0.000000 
lhumerus -37.779942 34.341839 73.185938 
lradius 27.995545 
lwrist -53.370687 
lhand -8.517968 2.511483 
lfingers 0.000000 
lthumb 17.410397 31.751765 
rfemur -14.898225 1.265794 22.864481 
rtibia 26.228051 
rfoot -25.858542 -4.308213 
rtoes -9.763471 
lfemur -29.041766 4.146259 -22.090720 
ltibia 65.326209 
lfoot -13.794707 5.677014 
ltoes -17.585943 
65
root -8.774183 16.915884 -19.285906 5.227791 -10.614720 5.704812
lowerback -9.262545 -1.033229 -3.369300 
upperback 2.162564 -0.946094 -0.334987 
thorax 7.543186 -0.604664 1.395219 
lowerneck -0.921681 -9.139766 -6.104506 
upperneck 7.040319 -12.782420 11.060101 
head 3.354008 -6.143175 3.813444 
rclavicle 0.000000 0.000000 
rhumerus -38.647220 -30.540715 -75.030719 
rradius 34.447714 
rwrist 37.415225 
rhand -22.750094 -4.140500 
rfingers 0.000000 
rthumb 3.684408 -34.088389 
lclavicle 0.000000 0.000000 
lhumerus -38.014950 33.990322 73.013494 
lradius 27.984476 
lwrist -53.115298 
lhand -8.252615 2.381054 
lfingers 0.000000 
lthumb 17.665781 31.598500 
rfemur -14.657063 1.422243 22.803487 
rtibia 26.356649 
rfoot -25.924829 -4.040101 
rtoes -9.956422 
lfemur -29.533621 3.836148 -22.179695 
ltibia 64.815073 
lfoot -14.181544 5.785812 
ltoes -17.506363 
66
root -8.792549 16.907031 -19.218725 5.156760 -11.069069 5.722903
lowerback -9.147749 -0.957019 -3.442097 
upperback 2.187992 -0.842065 -0.304263 
thorax 7.500775 -0.557728 1.486243 
lowerneck -1.004672 -9.182512 -6.213957 
upperneck 7.178317 -12.844148 11.024704 
head 3.419095 -6.171515 3.808578 
rclavicle 0.000000 0.000000 
rhumerus -38.183581 -30.204130 -75.294374 
rradius 34.514249 
rwrist 37.386798 
rhand -22.631469 -4.153486 
rfingers 0.000000 
rthumb 3.798992 -34.099345 
lclavicle 0.000000 0.000000 
lhumerus -38.508478 34.452272 72.687685 
lradius 27.952983 
lwrist -53.114251 
lhand -8.015065 2.112884 
lfingers 0.000000 
lthumb 17.894343 31.309601 
rfemur -14.371739 1.857347 22.809268 
rtibia 26.474989 
rfoot -26.254752 -4.022931 
rtoes -10.144440 
lfemur -29.973001 3.665331 -22.212482 
ltibia 64.225070 
lfoot -14.464077 5.914544 
ltoes -18.227864 
67
root -8.807723 16.901411 -19.150717 5.167750 -11.430655 5.783695
lowerback -9.130137 -0.872770 -3.463158 
upperback 2.204600 -0.724413 -0.342261 
thorax 7.502109 -0.500383 1.476408 
lowerneck -1.190191 -9.365418 -6.085627 
upperneck 7.435512 -13.085525 10.700818 
head 3.518400 -6.285598 3.662691 
rclavicle 0.000000 0.000000 
rhumerus -37.739552 -29.983213 -75.587961 
rradius 34.597533 
rwrist 37.005329 
rhand -22.504218 -4.135282 
rfingers 0.000000 
rthumb 3.921841 -34.078906 
lclavicle 0.000000 0.000000 
lhumerus -38.885206 34.438092 72.561846 
lradius 27.973535 
lwrist -53.313640 
lhand -8.195909 2.368267 
lfingers 0.000000 
lthumb 17.720328 31.580794 
rfemur -14.178187 2.006722 22.758243 
rtibia 26.559049 
rfoot -26.349907 -3.819555 
rtoes -10.507100 
lfemur -30.517254 3.369963 -22.274830 
ltibia 63.593957 
lfoot -14.896679 6.082614 
ltoes -18.350828 
